<svg width="135" height="24" viewBox="0 0 135 24" fill="none" xmlns="http://www.w3.org/2000/svg">
<path d="M27.1916 6.70035C22.2972 6.70035 18.473 10.4054 18.473 15.3654C18.473 20.3254 22.2006 23.9988 27.1916 23.9988C32.1825 23.9988 35.9749 20.262 35.9749 15.3337C35.9749 10.4371 32.2473 6.70035 27.1916 6.70035ZM27.2246 20.4242C24.4374 20.4242 22.395 18.2656 22.395 15.3666C22.395 12.4348 24.4044 10.2774 27.1916 10.2774C30.0117 10.2774 32.0529 12.4677 32.0529 15.3666C32.0529 18.2656 30.0117 20.4242 27.2246 20.4242ZM37.0438 10.47H39.4749V23.678H43.364V7.02233H37.0438V10.47ZM8.68554 10.2761C10.7279 10.2761 12.3483 11.5323 12.9635 13.4007H17.08C16.334 9.40658 13.0283 6.70035 8.71856 6.70035C3.82422 6.70035 0 10.4054 0 15.3666C0 20.3279 3.72762 24 8.71856 24C12.9317 24 16.3022 21.2938 17.0482 17.2667H12.9635C12.3801 19.1351 10.7597 20.4242 8.71735 20.4242C5.89717 20.4242 3.92083 18.2656 3.92083 15.3666C3.92207 12.4348 5.8666 10.2761 8.68554 10.2761ZM110.938 13.7556L108.086 13.3373C106.725 13.1446 105.753 12.6933 105.753 11.6299C105.753 10.47 107.017 9.89074 108.734 9.89074C110.614 9.89074 111.814 10.6957 112.073 12.0165H115.833C115.411 8.66629 112.818 6.70155 108.832 6.70155C104.716 6.70155 101.993 8.79559 101.993 11.7591C101.993 14.5934 103.776 16.2374 107.373 16.7521L110.225 17.1704C111.619 17.3631 112.397 17.9119 112.397 18.9424C112.397 20.2632 111.036 20.8108 109.156 20.8108C106.855 20.8108 105.558 19.8766 105.364 18.4595H101.54C101.897 21.7133 104.457 24 109.123 24C113.37 24 116.188 22.067 116.188 18.7485C116.188 15.7849 114.147 14.2385 110.938 13.7556ZM41.4194 0.160984C39.9935 0.160984 38.9236 1.19152 38.9236 2.60867C38.9236 4.02581 39.9923 5.05635 41.4194 5.05635C42.8454 5.05635 43.9156 4.02581 43.9156 2.60867C43.9156 1.19152 42.8454 0.160984 41.4194 0.160984ZM98.4932 12.725C98.4932 9.11753 96.2896 6.70155 91.6225 6.70155C87.2149 6.70155 84.7518 8.92485 84.2652 12.3396H88.1223C88.3167 11.0189 89.3538 9.92366 91.5578 9.92366C93.5354 9.92366 94.5075 10.7932 94.5075 11.8567C94.5075 13.2422 92.7243 13.5958 90.5207 13.8215C87.539 14.1434 83.8444 15.1739 83.8444 19.04C83.8444 22.0365 86.0811 23.9683 89.6464 23.9683C92.4333 23.9683 94.1834 22.8085 95.0592 20.9718C95.1889 22.6146 96.4205 23.678 98.1386 23.678H100.407V20.2315H98.4943V12.725H98.4932ZM94.6688 16.9131C94.6688 19.1363 92.7243 20.7791 90.3579 20.7791C88.8992 20.7791 87.6676 20.1669 87.6676 18.879C87.6676 17.2362 89.6449 16.785 91.4601 16.5923C93.2102 16.4313 94.1822 16.0447 94.6688 15.3032V16.9131ZM74.024 6.70035C71.852 6.70035 70.0372 7.60283 68.741 9.11633V0H64.8519V23.678H68.6759V21.4877C69.9721 23.0658 71.8204 24 74.024 24C78.6907 24 82.224 20.3279 82.224 15.3666C82.224 10.4054 78.626 6.70035 74.024 6.70035ZM73.4408 20.4242C70.6535 20.4242 68.6112 18.2656 68.6112 15.3666C68.6112 12.4677 70.6855 10.2774 73.4723 10.2774C76.2927 10.2774 78.2688 12.436 78.2688 15.3666C78.2688 18.2656 76.2276 20.4242 73.4408 20.4242ZM55.5497 6.70035C53.0219 6.70035 51.3684 7.73089 50.3964 9.18094V7.02233H46.5389V23.6768H50.428V14.6252C50.428 12.0799 52.0483 10.2761 54.4467 10.2761C56.6835 10.2761 58.0763 11.8543 58.0763 14.1422V23.678H61.9654V13.8531C61.9669 9.6639 59.796 6.70035 55.5497 6.70035ZM134.727 14.8191C134.727 10.0517 131.227 6.70155 126.527 6.70155C121.536 6.70155 117.874 10.4383 117.874 15.3666C117.874 20.5535 121.796 24 126.592 24C130.644 24 133.82 21.6157 134.63 18.2339H130.578C129.994 19.7156 128.569 20.5535 126.656 20.5535C124.16 20.5535 122.28 19.0071 121.859 16.3008H134.726V14.8191H134.727ZM122.087 13.53C122.703 11.2103 124.453 10.0835 126.463 10.0835C128.666 10.0835 130.352 11.3396 130.741 13.53H122.087Z" fill="#275BD1"/>
</svg>
